<svg width="488" height="460" viewBox="0 0 488 460" fill="none" xmlns="http://www.w3.org/2000/svg">
<path fill-rule="evenodd" clip-rule="evenodd" d="M289.325 210.555C289.339 210.55 289.352 210.545 289.366 210.54C289.484 210.496 289.608 210.449 289.738 210.4C289.593 210.455 289.455 210.507 289.325 210.555ZM296.055 235.608L294.865 242.783C311.799 238.19 328.845 233.793 346.123 230.943C348.714 230.516 351.31 230.226 353.908 229.935C355.313 229.778 356.72 229.62 358.126 229.441C359.509 229.265 361.516 229.009 362.283 227.698C362.807 226.801 362.908 225.668 362.585 224.683C362.297 223.812 361.572 223.282 360.769 222.914C355.311 220.419 320.172 229.426 298.088 235.087C297.397 235.264 296.719 235.438 296.055 235.608ZM286.566 245.045L286.531 245.055C286.281 245.123 286.031 245.192 285.781 245.26C286.042 245.189 286.305 245.117 286.566 245.045ZM275.998 265.127L268.544 268.253C264.712 285.798 260.938 303.39 258.888 321.242C258.03 328.725 257.277 336.382 257.483 343.914C258.212 363.733 270.521 366.676 285.93 357.395C298.804 349.641 308.453 340.166 319.013 329.798C319.299 329.517 319.587 329.235 319.875 328.952L333.473 315.797C334.833 314.477 336.157 313.073 337.486 311.663C339.946 309.054 342.426 306.423 345.198 304.265C345.397 304.308 345.618 304.363 345.855 304.422C347.061 304.722 348.657 305.118 349.596 304.567C352.342 302.953 357.312 294.808 357.925 291.669C358.12 290.675 358.139 289.509 357.571 288.629C357.11 287.917 356.341 287.589 355.534 287.445C353.899 287.152 352.533 287.963 351.275 288.896C345.857 292.909 339.977 299.099 334.639 304.718C332.857 306.593 331.137 308.404 329.514 310.049C329.106 310.464 328.649 310.928 328.149 311.437C316.849 322.932 283.039 357.329 270.484 355.697C269.007 355.505 267.795 354.823 266.888 353.637C261.849 347.048 265.367 323.309 266.725 314.145C266.751 313.968 266.776 313.797 266.801 313.631C269.051 298.42 272.668 280.21 275.998 265.127ZM262.734 198.399C262.775 198.178 262.813 197.971 262.849 197.779C262.814 197.97 262.775 198.179 262.734 198.399ZM244.317 303.458C245.989 294.17 248.002 282.324 249.614 273.025L242.153 275.684C240.431 285.423 238.752 295.169 237.116 304.923L234.595 319.154C234.412 320.138 234.204 321.145 233.997 322.149C233.675 323.71 233.354 325.264 233.129 326.71C232.602 330.1 235.637 333.38 238.033 331.425C239.979 329.836 241.09 322.521 241.644 318.875C241.731 318.305 241.804 317.824 241.865 317.469L244.317 303.458ZM221.164 239.677L230.311 236.745L231.241 229.166L196.834 240.217C194.948 240.834 193.028 241.474 191.095 242.119C186.723 243.577 182.281 245.058 178.006 246.343L191.963 173.418L195.756 153.989C195.866 153.428 195.976 152.867 196.087 152.305C197.326 146.014 198.571 139.693 198.766 133.269C198.857 130.264 198.247 126.66 196.515 124.131C195.388 122.485 193.727 121.327 191.748 120.99C187.837 120.325 183.865 122.664 180.834 124.871C164.793 136.551 145.43 168.243 142.345 187.994C141.55 193.087 141.532 198.85 144.717 203.179C147.239 206.607 150.925 208.327 155.063 208.893C157.377 209.209 160.231 209.537 162.236 208.082C162.927 207.581 163.474 206.82 163.54 205.948C163.611 205.016 163.113 204.03 162.484 203.37C161.258 202.084 159.255 202.027 157.157 201.968C153.227 201.857 148.96 201.736 148.815 193.516C148.521 176.793 166.508 148.399 178.073 136.588C180.307 134.305 186.754 127.942 189.973 127.905C190.168 127.903 190.379 128.023 190.57 128.13C190.628 128.163 190.685 128.195 190.738 128.222C193.919 132.081 188.38 157.6 185.748 169.727C185.276 171.901 184.898 173.645 184.68 174.756L175.974 220.052C175.461 222.725 174.923 225.476 174.379 228.26C173.02 235.205 171.622 242.354 170.481 249.021C168.413 249.47 165.458 250.486 162.972 251.341C162.31 251.569 161.682 251.785 161.112 251.977C155.421 253.88 149.743 255.823 144.078 257.804C131.316 262.188 118.63 266.792 106.027 271.615C105.729 271.731 105.43 271.849 105.13 271.966C95.9424 275.565 85.871 279.51 77.8237 285.141C71.1276 289.826 75.6243 296.673 82.5089 295.384C85.8428 294.794 84.5609 291.286 83.2283 289.462C96.034 282.387 110.613 277.041 124.346 272.04C139.158 266.629 154.071 261.498 169.076 256.646C163.702 284.596 158.573 312.592 153.687 340.631C152.054 349.939 150.524 359.266 149.096 368.608C148.208 374.467 147.353 380.441 147.035 386.409C146.824 390.36 149.721 393.086 153.329 390.212C155.774 388.265 157.609 383.402 155.273 380.685C154.977 380.344 154.673 380.011 154.361 379.685C154.941 376.75 155.409 373.39 155.857 370.174C156.042 368.848 156.223 367.547 156.408 366.31C157.359 360.075 158.362 353.85 159.414 347.633C163.086 326.424 166.882 305.236 170.804 284.071L174.459 264.46C174.601 263.692 174.764 262.756 174.938 261.748C175.4 259.088 175.948 255.93 176.445 254.052L206.263 244.498C207.48 244.106 208.977 243.648 210.576 243.158C214.281 242.023 218.54 240.718 221.164 239.677Z" fill="#22221F"/>
<path fill-rule="evenodd" clip-rule="evenodd" d="M265.128 147.512C252.002 152.07 220.318 167.611 237.854 184.98C239.27 186.382 240.167 187.023 241.816 187.956C244.376 189.405 248.524 187.023 246.743 184.126C245.996 182.91 244.849 181.849 243.696 180.782C241.274 178.541 238.824 176.274 239.984 172.489C242.942 164.584 255.911 158.877 263.069 155.728C263.22 155.661 263.368 155.596 263.514 155.532L270.994 152.415C279.202 149.413 288.996 145.947 297.498 143.869L297.621 143.958C298.024 144.985 291.349 173.907 286.426 193.961L293.885 191.18C295.306 185.32 296.692 179.443 298.077 173.57C299.895 165.863 301.711 158.163 303.602 150.515C304.313 147.638 305.024 144.4 305.545 141.491C338.32 132.798 372.821 126.742 406.679 124.853C409.414 124.7 412.962 124.223 411.869 120.185C410.653 116.838 401.368 117.978 396.886 118.529C396.185 118.615 395.601 118.687 395.185 118.725C376.327 120.363 357.576 123.04 339.012 126.746C332.595 128.024 326.451 129.446 320.298 130.87C316.006 131.864 311.709 132.858 307.312 133.805C307.866 131.571 309.064 126.161 305.832 125.474C301.214 124.494 300.038 133.223 299.956 136.082C297.53 136.393 294.071 137.458 291.408 138.278C291.063 138.384 290.731 138.486 290.417 138.582C284.443 140.427 278.498 142.368 272.586 144.404L265.128 147.512Z" fill="#22221F"/>
<path fill-rule="evenodd" clip-rule="evenodd" d="M266.643 176.669L263.085 196.503L255.997 198.921C256.563 195.626 257.336 190.011 257.891 186.711C258.313 184.197 258.736 181.682 259.163 179.169C260.004 175.806 260.976 174.606 263.514 173.57C265.801 173.2 266.198 174.294 266.643 176.669Z" fill="#22221F"/>
<path fill-rule="evenodd" clip-rule="evenodd" d="M289.738 210.4C293.001 209.172 299.908 206.574 301.848 207.923C308.89 212.826 293.415 216.824 288.254 218.157C287.693 218.302 287.254 218.416 286.979 218.496L282.158 239.036C284.826 238.474 289.819 237.205 296.055 235.608L294.865 242.783C292.095 243.534 289.33 244.29 286.566 245.045C284.477 245.617 282.387 246.188 280.3 246.756C278.629 253.859 277.577 257.97 275.998 265.127L268.544 268.253C268.694 267.564 268.845 266.874 268.996 266.184C270.238 260.502 271.478 254.825 272.662 249.144C267.367 250.578 262.004 252.302 256.716 254.002C255.376 254.433 254.04 254.862 252.711 255.285C251.571 262.052 250.786 266.264 249.614 273.025L242.153 275.684C243.194 269.796 244.25 263.911 245.322 258.028C240.977 259.677 237.054 261.622 232.971 263.647C232.362 263.949 231.748 264.253 231.13 264.558C228.702 266.052 225.615 262.349 227.313 260.189C230.712 255.865 241.66 251.673 246.698 250.34C247.242 246.35 248.081 241.725 248.89 237.265C249.321 234.888 249.744 232.559 250.109 230.397L230.311 236.745L231.241 229.166C233.072 228.583 234.936 227.981 236.814 227.374C241.711 225.791 246.709 224.175 251.501 222.791C251.941 219.838 252.527 216.66 253.102 213.727C254.214 208.053 255.013 204.652 255.997 198.921L263.085 196.503C263.022 196.854 262.898 197.515 262.734 198.399C261.665 204.127 258.852 219.213 259.307 220.017L259.625 220.063C262.437 219.375 265.861 218.177 269.317 216.968C273.654 215.45 278.041 213.915 281.33 213.349C281.697 211.784 282.739 207.554 284.13 201.906C284.915 198.721 285.478 197.824 286.426 193.961L293.885 191.18C292.301 197.713 290.675 204.227 288.96 210.691C289.187 210.608 289.448 210.509 289.738 210.4ZM268.323 224.592C264.672 225.784 261.047 226.967 257.553 227.914C256.449 233.713 255.063 241.231 254.256 247.078L254.566 247.335L254.818 247.292C259.126 246.046 263.422 244.755 267.703 243.419C268.176 243.273 268.763 243.1 269.399 242.913C271.155 242.394 273.293 241.763 274.494 241.292C274.963 239.874 279.236 222.219 279.216 221.434L278.692 221.373C275.275 222.322 271.788 223.461 268.323 224.592Z" fill="#F4A43C"/>
<mask id="path-2-inside-1_177_1794" fill="white">
<path fill-rule="evenodd" clip-rule="evenodd" d="M372.108 88.6234C372.147 88.5899 372.186 88.5563 372.226 88.5226C372.501 88.2865 372.784 88.0443 373.075 87.7952C375.55 85.6857 376.486 83.2403 376.45 79.7862C376.378 79.7161 376.272 79.5549 376.138 79.3491C375.54 78.4315 374.364 76.6275 372.973 78.059C372.738 78.3015 372.401 78.6584 371.984 79.0997C369.388 81.8477 363.698 87.8703 360.181 89.959C359.775 90.2005 359.347 90.4571 358.899 90.7251L358.846 90.7568C354.808 93.1765 349.776 96.5098 344.501 98.2363C344.104 98.3664 343.702 98.4952 343.299 98.6248C337.729 100.413 331.775 102.325 330.768 109.164"/>
<path fill-rule="evenodd" clip-rule="evenodd" d="M358.846 90.7568L358.899 90.7251C359.347 90.4571 359.775 90.2005 360.181 89.959C363.698 87.8703 369.388 81.8477 371.984 79.0997C372.401 78.6584 372.738 78.3015 372.973 78.059C374.364 76.6275 375.54 78.4315 376.138 79.3491C376.272 79.5549 376.378 79.7161 376.45 79.7862C376.486 83.2403 375.55 85.6857 373.075 87.7952C372.745 88.0773 372.426 88.3507 372.117 88.6162L372.108 88.6234C369.926 90.4952 368.194 91.9802 366.186 93.4501C365.452 93.9874 363.268 95.69 361.329 97.2027C359.939 98.2868 358.673 99.2737 358.156 99.6639L357.881 99.8737C351.051 105.084 347.712 107.632 339.146 112.173C339.146 112.173 329.688 116.498 330.768 109.164C331.775 102.325 337.729 100.413 343.299 98.6248C343.702 98.4952 344.104 98.3664 344.501 98.2363C349.776 96.5098 354.808 93.1765 358.846 90.7568Z"/>
</mask>
<path fill-rule="evenodd" clip-rule="evenodd" d="M372.108 88.6234C372.147 88.5899 372.186 88.5563 372.226 88.5226C372.501 88.2865 372.784 88.0443 373.075 87.7952C375.55 85.6857 376.486 83.2403 376.45 79.7862C376.378 79.7161 376.272 79.5549 376.138 79.3491C375.54 78.4315 374.364 76.6275 372.973 78.059C372.738 78.3015 372.401 78.6584 371.984 79.0997C369.388 81.8477 363.698 87.8703 360.181 89.959C359.775 90.2005 359.347 90.4571 358.899 90.7251L358.846 90.7568C354.808 93.1765 349.776 96.5098 344.501 98.2363C344.104 98.3664 343.702 98.4952 343.299 98.6248C337.729 100.413 331.775 102.325 330.768 109.164" fill="#22221F"/>
<path fill-rule="evenodd" clip-rule="evenodd" d="M358.846 90.7568L358.899 90.7251C359.347 90.4571 359.775 90.2005 360.181 89.959C363.698 87.8703 369.388 81.8477 371.984 79.0997C372.401 78.6584 372.738 78.3015 372.973 78.059C374.364 76.6275 375.54 78.4315 376.138 79.3491C376.272 79.5549 376.378 79.7161 376.45 79.7862C376.486 83.2403 375.55 85.6857 373.075 87.7952C372.745 88.0773 372.426 88.3507 372.117 88.6162L372.108 88.6234C369.926 90.4952 368.194 91.9802 366.186 93.4501C365.452 93.9874 363.268 95.69 361.329 97.2027C359.939 98.2868 358.673 99.2737 358.156 99.6639L357.881 99.8737C351.051 105.084 347.712 107.632 339.146 112.173C339.146 112.173 329.688 116.498 330.768 109.164C331.775 102.325 337.729 100.413 343.299 98.6248C343.702 98.4952 344.104 98.3664 344.501 98.2363C349.776 96.5098 354.808 93.1765 358.846 90.7568Z" fill="#22221F"/>
<path d="M376.45 79.7862L376.95 79.781L376.947 79.5732L376.799 79.4281L376.45 79.7862ZM376.138 79.3491L375.719 79.6222L375.719 79.6222L376.138 79.3491ZM372.973 78.059L373.332 78.4073L373.332 78.4073L372.973 78.059ZM371.984 79.0997L372.347 79.4431L372.347 79.4431L371.984 79.0997ZM360.181 89.959L359.926 89.5291V89.5291L360.181 89.959ZM358.899 90.7251L358.642 90.2962L358.642 90.2962L358.899 90.7251ZM358.846 90.7568L359.103 91.1857L359.103 91.1857L358.846 90.7568ZM344.501 98.2363L344.657 98.7115L344.657 98.7115L344.501 98.2363ZM343.299 98.6248L343.146 98.1487L343.146 98.1487L343.299 98.6248ZM373.075 87.7952L373.399 88.1757C374.688 87.0768 375.593 85.8754 376.166 84.4855C376.738 83.0994 376.968 81.5536 376.95 79.781L376.45 79.7862L375.95 79.7914C375.967 81.4728 375.748 82.8768 375.242 84.1043C374.737 85.3281 373.936 86.4041 372.751 87.4146L373.075 87.7952ZM376.45 79.7862L376.799 79.4281C376.8 79.4297 376.78 79.4074 376.728 79.3329C376.681 79.2656 376.626 79.1809 376.557 79.076L376.138 79.3491L375.719 79.6222C375.785 79.723 375.85 79.8218 375.907 79.9041C375.959 79.9792 376.027 80.0726 376.101 80.1443L376.45 79.7862ZM376.138 79.3491L376.557 79.076C376.271 78.6366 375.777 77.8679 375.143 77.416C374.815 77.1821 374.408 77.002 373.942 77.0284C373.469 77.0552 373.024 77.2891 372.615 77.7107L372.973 78.059L373.332 78.4073C373.618 78.1131 373.841 78.0357 373.999 78.0268C374.163 78.0175 374.348 78.0774 374.563 78.2303C375.014 78.5519 375.408 79.144 375.719 79.6222L376.138 79.3491ZM372.973 78.059L372.615 77.7107C372.376 77.9563 372.036 78.3162 371.62 78.7564L371.984 79.0997L372.347 79.4431C372.765 79.0006 373.1 78.6468 373.332 78.4073L372.973 78.059ZM371.984 79.0997L371.62 78.7564C370.322 80.1309 368.258 82.3156 366.08 84.4168C363.893 86.5278 361.629 88.5177 359.926 89.5291L360.181 89.959L360.437 90.3889C362.25 89.3115 364.589 87.2459 366.775 85.1364C368.971 83.0171 371.05 80.8166 372.347 79.4431L371.984 79.0997ZM360.181 89.959L359.926 89.5291C359.518 89.7712 359.089 90.0283 358.642 90.2962L358.899 90.7251L359.156 91.154C359.604 90.8859 360.031 90.6299 360.437 90.3889L360.181 89.959ZM358.899 90.7251L358.642 90.2962L358.589 90.3279L358.846 90.7568L359.103 91.1857L359.156 91.154L358.899 90.7251ZM358.846 90.7568L358.589 90.3279C354.52 92.7664 349.552 96.057 344.346 97.7611L344.501 98.2363L344.657 98.7115C350 96.9626 355.097 93.5867 359.103 91.1857L358.846 90.7568ZM344.501 98.2363L344.346 97.7611C343.95 97.8907 343.55 98.0191 343.146 98.1487L343.299 98.6248L343.452 99.1008C343.855 98.9714 344.258 98.8421 344.657 98.7115L344.501 98.2363ZM343.299 98.6248L343.146 98.1487C340.377 99.0379 337.423 99.9823 335.043 101.586C332.635 103.208 330.8 105.511 330.273 109.091L330.768 109.164L331.263 109.236C331.742 105.977 333.389 103.905 335.602 102.415C337.842 100.906 340.651 100 343.452 99.1008L343.299 98.6248ZM372.061 79.018L371.698 78.6746C371.672 78.7016 371.646 78.7288 371.62 78.7564L371.984 79.0997L372.347 79.4431C372.373 79.4155 372.399 79.3883 372.424 79.3614L372.061 79.018ZM359.02 90.6525L358.763 90.2236C358.723 90.2477 358.683 90.2719 358.642 90.2962L358.899 90.7251L359.156 91.154C359.197 91.1297 359.237 91.1055 359.277 91.0814L359.02 90.6525ZM372.226 88.5226L371.575 87.7635V87.7635L372.226 88.5226ZM372.117 88.6162L371.466 87.8571L371.466 87.8571L372.117 88.6162ZM366.186 93.4501L366.776 94.257V94.257L366.186 93.4501ZM361.329 97.2027L360.714 96.4141L360.714 96.4141L361.329 97.2027ZM358.156 99.6639L357.554 98.8657L357.55 98.8688L358.156 99.6639ZM357.881 99.8737L357.275 99.0787L357.275 99.0787L357.881 99.8737ZM339.146 112.173L339.562 113.083L339.588 113.071L339.614 113.057L339.146 112.173ZM372.108 88.6234L372.759 89.3825C372.798 89.349 372.837 89.3154 372.877 89.2817L372.226 88.5226L371.575 87.7635C371.535 87.7972 371.496 87.8308 371.457 87.8643L372.108 88.6234ZM372.226 88.5226L372.877 89.2817C373.152 89.0457 373.434 88.8038 373.725 88.5551L373.075 87.7952L372.425 87.0352C372.133 87.2848 371.85 87.5274 371.575 87.7635L372.226 88.5226ZM373.075 87.7952L372.425 87.0352C372.094 87.3179 371.775 87.5916 371.466 87.8571L372.117 88.6162L372.768 89.3753C373.077 89.1097 373.396 88.8368 373.725 88.5551L373.075 87.7952ZM372.117 88.6162L371.466 87.8571L371.457 87.8643L372.108 88.6234L372.759 89.3825L372.768 89.3753L372.117 88.6162ZM372.108 88.6234L371.457 87.8643C369.27 89.7403 367.567 91.1998 365.595 92.6431L366.186 93.4501L366.776 94.257C368.821 92.7606 370.581 91.2502 372.759 89.3825L372.108 88.6234ZM366.186 93.4501L365.595 92.6431C364.845 93.1922 362.644 94.9091 360.714 96.4141L361.329 97.2027L361.944 97.9912C363.893 96.4708 366.058 94.7826 366.776 94.257L366.186 93.4501ZM361.329 97.2027L360.714 96.4141C359.319 97.502 358.063 98.4817 357.554 98.8657L358.156 99.6639L358.759 100.462C359.284 100.066 360.558 99.0717 361.944 97.9912L361.329 97.2027ZM358.156 99.6639L357.55 98.8688L357.275 99.0787L357.881 99.8737L358.488 100.669L358.763 100.459L358.156 99.6639ZM357.881 99.8737L357.275 99.0787C350.461 104.277 347.172 106.786 338.677 111.29L339.146 112.173L339.614 113.057C348.252 108.477 351.642 105.892 358.488 100.669L357.881 99.8737ZM339.146 112.173C338.73 111.264 338.73 111.264 338.73 111.264C338.73 111.264 338.731 111.264 338.731 111.264C338.731 111.264 338.731 111.264 338.73 111.264C338.73 111.264 338.729 111.264 338.727 111.265C338.724 111.266 338.719 111.269 338.712 111.272C338.697 111.279 338.674 111.289 338.643 111.302C338.58 111.329 338.486 111.369 338.366 111.418C338.125 111.516 337.78 111.648 337.368 111.786C336.534 112.065 335.475 112.348 334.479 112.422C333.447 112.498 332.7 112.333 332.27 111.967C331.902 111.654 331.514 110.965 331.757 109.309L330.768 109.164L329.779 109.018C329.483 111.029 329.871 112.551 330.973 113.489C332.013 114.375 333.428 114.504 334.626 114.416C335.859 114.325 337.097 113.985 338.002 113.683C338.46 113.53 338.845 113.382 339.117 113.272C339.253 113.216 339.362 113.17 339.437 113.138C339.475 113.121 339.505 113.108 339.526 113.099C339.536 113.094 339.545 113.091 339.551 113.088C339.554 113.086 339.556 113.085 339.558 113.084C339.559 113.084 339.56 113.084 339.56 113.083C339.561 113.083 339.561 113.083 339.561 113.083C339.561 113.083 339.562 113.083 339.146 112.173Z" fill="#22221F" mask="url(#path-2-inside-1_177_1794)"/>
</svg>
